<?xml version="1.0" encoding="UTF-8" standalone="no"?>
<svg
   xmlns:dc="http://purl.org/dc/elements/1.1/"
   xmlns:cc="http://creativecommons.org/ns#"
   xmlns:rdf="http://www.w3.org/1999/02/22-rdf-syntax-ns#"
   xmlns:svg="http://www.w3.org/2000/svg"
   xmlns="http://www.w3.org/2000/svg"
   xmlns:sodipodi="http://sodipodi.sourceforge.net/DTD/sodipodi-0.dtd"
   xmlns:inkscape="http://www.inkscape.org/namespaces/inkscape"
   sodipodi:docname="climb.svg"
   inkscape:version="1.0 (4035a4fb49, 2020-05-01)"
   id="svg8"
   version="1.1"
   viewBox="0 0 118.27098 219.16391"
   height="219.16391mm"
   width="118.27098mm">
  <defs
     id="defs2" />
  <sodipodi:namedview
     inkscape:window-maximized="0"
     inkscape:window-y="0"
     inkscape:window-x="182"
     inkscape:window-height="860"
     inkscape:window-width="1274"
     showgrid="false"
     inkscape:document-rotation="0"
     inkscape:current-layer="layer1"
     inkscape:document-units="mm"
     inkscape:cy="445.49416"
     inkscape:cx="-130.46125"
     inkscape:zoom="0.35"
     inkscape:pageshadow="2"
     inkscape:pageopacity="0.0"
     borderopacity="1.0"
     bordercolor="#666666"
     pagecolor="#ffffff"
     id="base" />
  <metadata
     id="metadata5">
    <rdf:RDF>
      <cc:Work
         rdf:about="">
        <dc:format>image/svg+xml</dc:format>
        <dc:type
           rdf:resource="http://purl.org/dc/dcmitype/StillImage" />
        <dc:title></dc:title>
      </cc:Work>
    </rdf:RDF>
  </metadata>
  <g
     transform="translate(-48.343154,-29.109746)"
     id="layer1"
     inkscape:groupmode="layer"
     inkscape:label="Layer 1">
    <g
       transform="translate(1.5119052,-9.8273814)"
       id="g847">
      <path
         id="path861"
         d="m 118.48372,217.43905 c 0.191,-0.0764 0.4192,-0.067 0.50712,0.0209 0.0879,0.0879 -0.0684,0.15046 -0.34727,0.13897 -0.30822,-0.0127 -0.37091,-0.0754 -0.15985,-0.15985 z M 115.67449,91.545835 c 0.005,-0.436562 0.0647,-0.583126 0.13178,-0.325694 0.0671,0.257432 0.0627,0.614619 -0.01,0.79375 -0.0725,0.179131 -0.12736,-0.03149 -0.12197,-0.468056 z"
         style="fill:#b9b9b9;fill-opacity:1;stroke-width:1" />
      <path
         id="path859"
         d="m 89.714637,233.60503 c 0.0127,-0.30823 0.07539,-0.37092 0.159851,-0.15985 0.07643,0.19099 0.06703,0.4192 -0.02088,0.50712 -0.08792,0.0879 -0.150453,-0.0684 -0.138964,-0.34727 z m 41.071513,-31.19878 c 0.002,-0.87313 0.0509,-1.19842 0.10977,-0.72287 0.0589,0.47555 0.0577,1.18993 -0.003,1.5875 -0.0604,0.39758 -0.10855,0.008 -0.10707,-0.86463 z"
         style="fill:#a3a3a3;fill-opacity:1;stroke-width:1" />
      <path
         id="path857"
         d="m 58.952473,237.01821 c 0.190996,-0.0764 0.419199,-0.067 0.507118,0.0209 0.08792,0.0879 -0.06835,0.15045 -0.347266,0.13896 -0.308224,-0.0127 -0.370919,-0.0754 -0.159852,-0.15985 z m 2.910417,0 c 0.190996,-0.0764 0.419199,-0.067 0.507118,0.0209 0.08792,0.0879 -0.06835,0.15045 -0.347266,0.13896 -0.308224,-0.0127 -0.370919,-0.0754 -0.159852,-0.15985 z m 69.18514,-40.56509 c 0,-0.80036 0.0496,-1.12778 0.11022,-0.7276 0.0606,0.40018 0.0606,1.05502 0,1.45521 -0.0606,0.40018 -0.11022,0.0728 -0.11022,-0.72761 z"
         style="fill:#8c8c8c;fill-opacity:1;stroke-width:1" />
      <path
         id="path855"
         d="m 88.370831,42.101151 c 0,-0.05494 0.20836,-0.263302 0.463021,-0.463021 0.419645,-0.329107 0.429004,-0.319749 0.0999,0.0999 -0.345643,0.440729 -0.562917,0.580887 -0.562917,0.363126 z"
         style="fill:#767676;fill-opacity:1;stroke-width:1" />
      <path
         id="path853"
         d="m 76.414972,246.54321 c 0.190995,-0.0764 0.419198,-0.067 0.507119,0.0209 0.08792,0.0879 -0.06835,0.15045 -0.347265,0.13896 -0.308227,-0.0127 -0.37092,-0.0754 -0.159854,-0.15985 z m 0.0705,-38.07359 c 0.0127,-0.30823 0.07539,-0.37092 0.15985,-0.15986 0.07643,0.191 0.06703,0.4192 -0.02087,0.50712 -0.08792,0.0879 -0.150453,-0.0684 -0.138965,-0.34726 z m 70.155078,-12.81025 c 0,-0.50932 0.0545,-0.71768 0.121,-0.46302 0.0666,0.25466 0.0666,0.67138 0,0.92604 -0.0666,0.25466 -0.121,0.0463 -0.121,-0.46302 z M 99.433722,174.84113 c 0.190995,-0.0764 0.419198,-0.067 0.507119,0.0209 0.08792,0.0879 -0.06835,0.15045 -0.347266,0.13896 -0.308226,-0.0127 -0.370919,-0.0754 -0.159853,-0.15985 z m 38.256758,-13.64374 -0.50402,-0.59531 0.59531,0.50403 c 0.55944,0.47366 0.71576,0.6866 0.50403,0.6866 -0.0502,0 -0.3181,-0.26789 -0.59532,-0.59532 z m -19.64454,-49.41093 c 0,-0.3638 0.0601,-0.51263 0.13345,-0.33073 0.0734,0.1819 0.0734,0.47956 0,0.66146 -0.0734,0.1819 -0.13345,0.0331 -0.13345,-0.33073 z"
         style="fill:#606060;fill-opacity:1;stroke-width:1" />
      <path
         id="path851"
         d="m 76.540255,206.90416 c 0.0021,-0.7276 0.05337,-0.99385 0.114187,-0.59167 0.06082,0.40218 0.05919,0.99749 -0.0036,1.32292 -0.0628,0.32542 -0.112559,-0.004 -0.110574,-0.73125 z m 4.707716,-34.94704 c 0.0127,-0.30823 0.07539,-0.37092 0.15985,-0.15986 0.07643,0.191 0.06703,0.4192 -0.02088,0.50712 -0.08792,0.0879 -0.150453,-0.0684 -0.138965,-0.34726 z m 54.590429,-12.34723 -0.50403,-0.59531 0.59531,0.50403 c 0.55945,0.47366 0.71577,0.6866 0.50403,0.6866 -0.0502,0 -0.3181,-0.26789 -0.59531,-0.59532 z m -5.11335,-14.90485 c 0.0127,-0.30823 0.0754,-0.37092 0.15985,-0.15986 0.0764,0.191 0.067,0.4192 -0.0209,0.50712 -0.0879,0.0879 -0.15046,-0.0684 -0.13897,-0.34726 z M 74.612499,80.465731 c 0,-0.05494 0.208359,-0.2633 0.46302,-0.46302 0.419645,-0.329108 0.429004,-0.319749 0.0999,0.0999 -0.345643,0.440729 -0.562916,0.580887 -0.562916,0.363124 z M 84.973023,52.255212 c 0,-0.363802 0.06006,-0.51263 0.133453,-0.330729 0.0734,0.181901 0.0734,0.479557 0,0.661458 -0.0734,0.181901 -0.133453,0.03307 -0.133453,-0.330729 z"
         style="fill:#494949;fill-opacity:1;stroke-width:1" />
      <path
         id="path849"
         d="m 46.831249,248.58108 v -9.51996 l 0.727604,-0.14487 c 0.751242,-0.14957 1.121758,-0.27266 4.034896,-1.34038 2.256126,-0.82692 2.682274,-0.8066 3.22884,0.15392 0.553659,0.97299 1.193973,1.00665 2.484874,0.13062 0.848476,-0.57579 1.262755,-0.66146 3.198776,-0.66146 2.33761,0 2.824792,0.22805 3.674293,1.71987 0.274983,0.48291 0.312351,0.48041 1.221855,-0.0817 1.453394,-0.89824 2.019007,-0.75902 3.653862,0.89936 0.800364,0.81188 2.082737,1.78422 2.849718,2.16075 0.76698,0.37652 1.531194,0.84928 1.698252,1.05058 0.167058,0.20129 0.3585,1.31186 0.425424,2.46794 0.06692,1.15607 0.195678,2.09773 0.286123,2.09258 0.09044,-0.005 0.462097,-0.17953 0.825899,-0.3875 0.363802,-0.20797 1.048412,-0.38235 1.521354,-0.3875 0.472943,-0.005 0.859896,-0.093 0.859896,-0.19522 0,-0.10221 -0.377031,-0.57484 -0.837848,-1.05028 -1.036894,-1.0698 -1.072811,-1.92305 -0.161248,-3.83044 1.195277,-2.50103 2.041875,-4.57229 2.159696,-5.28386 0.06312,-0.38122 0.238588,-0.917 0.389919,-1.19062 0.469869,-0.84958 1.096418,-5.14986 1.095851,-7.52134 -5.29e-4,-2.24646 -0.649882,-5.90802 -1.449257,-8.17213 -0.684393,-1.93842 -1.430041,-5.18834 -1.718842,-7.49157 -0.390395,-3.11347 -0.335129,-8.86499 0.112194,-11.67552 0.211317,-1.32771 0.577776,-3.84277 0.814353,-5.58902 0.396526,-2.9269 0.535527,-3.37141 1.778884,-5.68854 0.741812,-1.38245 1.606949,-2.93026 1.922528,-3.43958 0.491633,-0.79347 0.59975,-1.48177 0.755177,-4.80773 0.163012,-3.48827 0.137046,-3.89052 -0.256202,-3.96875 -0.344686,-0.0686 -0.454027,-0.46096 -0.514974,-1.84806 -0.18854,-4.29095 -0.983414,-10.94644 -1.341546,-11.23276 -0.202089,-0.16156 -0.367435,-0.41487 -0.367435,-0.56291 0,-0.14804 -0.170939,-0.41103 -0.379868,-0.58443 -0.208928,-0.17339 -0.458739,-0.69399 -0.555138,-1.15687 -0.0964,-0.46289 -0.326488,-1.08138 -0.51131,-1.37441 -0.915635,-1.45175 -1.685284,-4.35498 -1.861126,-7.02044 -0.12097,-1.83374 -0.350962,-3.12528 -0.682615,-3.8333 -0.275095,-0.58728 -0.682736,-2.11468 -0.905867,-3.39421 -0.223131,-1.27953 -0.64158,-2.99755 -0.929886,-3.81783 -0.288303,-0.82028 -0.52419,-1.52371 -0.52419,-1.56318 0,-0.13471 -1.981364,-0.90381 -3.704166,-1.43785 -4.327773,-1.34153 -7.521987,-3.18531 -9.336281,-5.38911 l -1.163622,-1.41344 -0.168009,-3.6583 c -0.162278,-3.53351 -0.03666,-4.94194 0.539237,-6.04577 0.150056,-0.28762 0.663532,-1.71357 1.141057,-3.16878 0.477526,-1.4552 1.073847,-3.06255 1.325158,-3.57187 0.251312,-0.50932 0.772931,-2.11667 1.159153,-3.57188 0.386223,-1.4552 1.243505,-3.81445 1.905072,-5.24277 0.836549,-1.8061 1.407977,-3.5787 1.876449,-5.82083 0.406966,-1.947765 0.991676,-3.852283 1.477154,-4.811395 0.441954,-0.873125 0.96117,-2.480469 1.153813,-3.571875 0.951888,-5.392861 3.24116,-10.372473 6.264289,-13.626041 0.676071,-0.727604 1.230489,-1.399889 1.23204,-1.493967 0.0076,-0.463619 5.348231,-3.378904 8.176233,-4.463192 2.118416,-0.812226 5.267542,-3.366905 5.376489,-4.36159 0.03188,-0.291042 -0.04215,-1.700009 -0.164515,-3.131037 -0.214762,-2.511694 -0.258244,-2.643203 -1.254577,-3.794375 -0.567656,-0.655877 -1.28056,-1.687691 -1.58423,-2.292921 -0.30367,-0.605229 -0.758121,-1.338542 -1.009893,-1.629584 -1.466946,-1.695757 -2.21555,-6.999529 -1.486281,-10.530141 0.485685,-2.351342 1.315828,-3.692125 3.336848,-5.389405 1.02875,-0.863958 1.986677,-1.322501 4.421851,-2.116666 2.975779,-0.970469 3.243403,-1.011218 6.263317,-0.953673 2.030919,0.0387 3.607519,0.210512 4.425829,0.48231 0.69911,0.232208 1.39324,0.346716 1.54251,0.254464 0.14927,-0.09225 1.047,0.214098 1.99497,0.680779 1.328,0.653774 1.75627,1.00664 1.86604,1.537506 0.0784,0.378947 0.36611,1.182108 0.63944,1.784803 0.67821,1.495439 0.89981,2.846596 0.56841,3.465814 -0.21686,0.405219 -0.10853,0.871069 0.50351,2.165227 l 0.77981,1.648925 -0.58611,1.6794 c -0.64375,1.844524 -0.62701,1.925737 0.88708,4.304157 0.65138,1.023225 0.43629,1.443833 -1.00486,1.964958 -0.81225,0.293712 -0.89707,0.410257 -0.72777,0.999919 0.37371,1.301568 0.11866,4.576908 -0.44795,5.752507 -0.48847,1.013473 -0.68347,1.15711 -2.11689,1.559309 -0.89863,0.25214 -1.68784,0.646636 -1.83181,0.915649 -0.16451,0.307387 -0.14287,1.180764 0.0619,2.497902 0.30127,1.937901 0.36116,2.056907 1.38843,2.759014 0.59046,0.403566 1.62958,0.977924 2.30914,1.276347 1.68662,0.740664 4.23183,2.500857 5.0887,3.519196 1.21017,1.438201 1.54082,2.55918 1.67922,5.692876 0.0984,2.228365 0.0266,3.28631 -0.29897,4.406346 -0.56059,1.928382 -0.53035,5.531297 0.0805,9.594559 0.26254,1.74625 0.79358,5.496715 1.18009,8.334375 0.3865,2.83766 0.80818,5.87375 0.93706,6.74687 0.16405,1.11139 0.59788,2.21861 1.44651,3.69178 0.66669,1.15736 1.40887,2.70517 1.64928,3.43959 0.24041,0.73441 0.78094,2.02288 1.20118,2.86326 0.42023,0.84037 1.16757,2.64265 1.66074,4.00504 0.49316,1.3624 1.07592,2.82373 1.295,3.2474 0.44142,0.8536 1.2806,3.27998 1.76548,5.10467 0.17321,0.65179 0.77029,2.14007 1.32686,3.30729 1.04913,2.20023 2.11003,5.1204 2.11003,5.80796 0,0.21733 0.30349,1.32242 0.67441,2.45574 1.70304,5.20356 2.23019,7.18071 2.23299,8.37516 0.004,1.57027 0.93625,2.96263 4.04752,6.0431 1.3302,1.31702 2.28755,2.53586 2.70199,3.43999 0.80858,1.76395 1.61475,2.65596 3.07247,3.39963 2.90256,1.48078 4.88796,3.55466 5.70855,5.96295 0.37233,1.09273 0.36222,1.32931 -0.13767,3.22307 -0.84257,3.19199 -1.3326,6.23475 -1.62876,10.11358 -0.15,1.96453 -0.38052,4.28625 -0.51228,5.15937 -0.13176,0.87313 -0.24961,2.29471 -0.26189,3.15908 -0.0123,0.86436 -0.13854,2.23358 -0.28057,3.0427 -0.14204,0.80913 -0.39255,2.60223 -0.55669,3.98468 -0.16415,1.38245 -0.35862,2.9005 -0.43216,3.37344 -0.11202,0.72039 -0.0505,0.85989 0.37917,0.85989 0.54657,0 1.3423,-1.5123 1.90677,-3.62382 0.32623,-1.22036 1.33706,-2.19701 2.27389,-2.19701 0.32755,0 1.59141,-0.37402 2.80859,-0.83115 2.04408,-0.7677 2.47733,-0.83335 5.6744,-0.8599 3.34867,-0.0278 3.49663,-0.0532 4.54533,-0.77935 0.5962,-0.41284 1.30078,-0.70887 1.56574,-0.65784 0.46208,0.089 0.48449,1.31564 0.54902,30.05321 l 0.0673,29.96045 H 105.96675 46.831249 Z m 48.418749,-5.46915 c 0,-0.38588 -0.519036,-1.60627 -1.153411,-2.71198 -0.634376,-1.1057 -1.299287,-2.45938 -1.477579,-3.00817 -0.290484,-0.89412 -0.268491,-1.05907 0.211651,-1.5875 0.2947,-0.32433 1.142727,-1.33406 1.884502,-2.24383 1.856304,-2.27671 2.437495,-2.6306 3.618746,-2.20346 0.80405,0.29075 0.9881,0.27428 1.432862,-0.12822 0.652881,-0.59086 0.650301,-1.22344 -0.0067,-1.63372 -0.284342,-0.17758 -0.642998,-0.55833 -0.797015,-0.84611 -0.249915,-0.46697 -0.04494,-0.67722 1.906056,-1.9551 1.20234,-0.78753 3.16652,-1.94041 4.36484,-2.56195 2.03429,-1.05515 2.2833,-1.1206 3.75537,-0.98712 1.45114,0.13158 1.58307,0.099 1.6577,-0.40989 0.0446,-0.30406 0.85499,-1.20755 1.80087,-2.00774 1.29751,-1.09765 1.75841,-1.67077 1.87706,-2.33404 0.0865,-0.48354 0.23383,-0.95573 0.32742,-1.04931 0.0936,-0.0936 1.63919,-0.035 3.43468,0.13018 3.06513,0.282 3.32731,0.26833 4.29259,-0.2238 1.1958,-0.60965 1.65847,-0.64006 3.11217,-0.20452 0.69706,0.20885 1.21204,0.5782 1.48591,1.06573 0.60144,1.07066 1.35005,1.14919 4.1806,0.43856 l 2.50967,-0.63006 -0.11163,-1.58911 c -0.0655,-0.93291 -0.44585,-2.41137 -0.92102,-3.58037 -1.37416,-3.38068 -1.76005,-6.80033 -1.55176,-13.75144 0.0981,-3.27422 0.2901,-6.37922 0.42664,-6.90001 0.50208,-1.91503 1.33997,-6.82176 1.73799,-10.17777 l 0.15834,-1.33506 -1.41735,-1.08022 c -0.77954,-0.59411 -2.81191,-1.76944 -4.51637,-2.61184 l -3.09901,-1.53163 -1.3989,0.31116 c -0.7694,0.17114 -2.70859,0.42806 -4.30932,0.57095 -1.60073,0.14288 -3.30371,0.32704 -3.7844,0.40923 -0.4807,0.0822 -1.70272,0.0678 -2.71561,-0.032 -1.70432,-0.16794 -1.85398,-0.23314 -2.00739,-0.87453 -0.0912,-0.38118 -0.50638,-1.20523 -0.92269,-1.83121 -0.4163,-0.62598 -0.94844,-1.51895 -1.18252,-1.98437 -0.55184,-1.09719 -3.26955,-4.68268 -3.54937,-4.68268 -0.32286,0 -0.97848,2.24618 -1.34202,4.59784 -0.21962,1.42064 -0.50665,2.29872 -0.90145,2.7577 -0.56129,0.65255 -0.61778,0.6626 -1.82481,0.32465 -0.823607,-0.23059 -1.334488,-0.25983 -1.50802,-0.0863 -0.321472,0.32147 -1.287833,4.90142 -1.292627,6.12625 -0.0068,1.73359 -0.851729,4.18911 -2.744431,7.97569 -2.126683,4.25469 -2.362946,5.30515 -2.677893,11.90625 -0.151548,3.1764 -0.919548,9.03673 -1.629669,12.43541 -1.298493,6.21469 -1.823085,14.4715 -1.158885,18.24033 0.142597,0.80912 0.375256,2.14838 0.517017,2.97612 0.456123,2.66326 1.069369,4.3473 2.35603,6.46995 1.088612,1.79591 2.02112,2.72237 2.754666,2.73679 0.109141,0.002 0.198438,-0.31183 0.198438,-0.69771 z"
         style="fill:#333333;fill-opacity:1;stroke-width:1" />
    </g>
  </g>
</svg>
