<?xml version="1.0" encoding="UTF-8" standalone="no"?>
<svg
   xmlns:dc="http://purl.org/dc/elements/1.1/"
   xmlns:cc="http://creativecommons.org/ns#"
   xmlns:rdf="http://www.w3.org/1999/02/22-rdf-syntax-ns#"
   xmlns:svg="http://www.w3.org/2000/svg"
   xmlns="http://www.w3.org/2000/svg"
   xmlns:sodipodi="http://sodipodi.sourceforge.net/DTD/sodipodi-0.dtd"
   xmlns:inkscape="http://www.inkscape.org/namespaces/inkscape"
   inkscape:version="1.0 (4035a4fb49, 2020-05-01)"
   sodipodi:docname="logo.svg"
   viewBox="0 0 242.48809 242.12269"
   height="242.1227"
   width="242.4881"
   id="svg833"
   version="1.1">
  <metadata
     id="metadata839">
    <rdf:RDF>
      <cc:Work
         rdf:about="">
        <dc:format>image/svg+xml</dc:format>
        <dc:type
           rdf:resource="http://purl.org/dc/dcmitype/StillImage" />
        <dc:title></dc:title>
      </cc:Work>
    </rdf:RDF>
  </metadata>
  <defs
     id="defs837" />
  <sodipodi:namedview
     fit-margin-bottom="0"
     fit-margin-right="0"
     fit-margin-left="0"
     fit-margin-top="0"
     inkscape:current-layer="g841"
     inkscape:window-maximized="1"
     inkscape:window-y="-8"
     inkscape:window-x="-8"
     inkscape:cy="141.95738"
     inkscape:cx="100.07181"
     inkscape:zoom="1.4758927"
     showgrid="false"
     id="namedview835"
     inkscape:window-height="837"
     inkscape:window-width="1600"
     inkscape:pageshadow="2"
     inkscape:pageopacity="0"
     guidetolerance="10"
     gridtolerance="10"
     objecttolerance="10"
     borderopacity="1"
     bordercolor="#666666"
     pagecolor="#ffffff"
     inkscape:document-rotation="0" />
  <g
     transform="translate(-32.209546,-68.890548)"
     id="g841"
     inkscape:label="Image"
     inkscape:groupmode="layer">
    <path
       id="path845"
       d="m 50.452935,304.79714 c -5.276383,-1.28035 -10.229266,-5.29036 -11.809394,-9.56127 -0.501994,-1.35685 -0.752494,-17.41122 -0.752494,-48.22701 V 200.81577 H 153.45971 269.02836 v 46.26891 c 0,44.49736 -0.0531,46.37498 -1.38693,49.03925 -1.57879,3.15358 -4.90791,6.24849 -8.53921,7.93848 -2.2332,1.03932 -12.66311,1.16643 -104.22449,1.27019 -58.338475,0.0661 -102.887059,-0.16232 -104.424795,-0.53546 z M 156.56036,264.3282 c 11.16318,-5.60052 20.29668,-10.31188 20.29668,-10.46969 0,-0.36368 -10.69351,-5.84361 -28.18315,-14.44253 l -13.64845,-6.71037 v 20.90268 c 0,11.49647 0.27861,20.90268 0.61912,20.90268 0.34052,0 9.75263,-4.58224 20.9158,-10.18277 z M 41.689214,195.05523 c -3.781803,-1.58852 -3.798167,-1.72642 -3.798167,-32.0062 0,-33.18307 -0.02957,-33.03845 6.751798,-33.03845 2.210452,0 3.924342,1.67598 23.827789,23.30069 11.795313,12.81538 23.300081,25.30458 25.566148,27.75379 3.616626,3.90891 4.120129,4.809 4.120129,7.36535 0,2.03639 -0.514436,3.52194 -1.710487,4.93943 l -1.710487,2.02717 -25.763657,0.14823 c -14.170015,0.0815 -26.447391,-0.13898 -27.283066,-0.49001 z m 75.364096,-2.77164 c 0.72072,-1.1163 5.71418,-8.5942 11.0966,-16.61754 l 9.7862,-14.58789 h 15.24164 c 12.36771,0 15.13472,0.17814 14.67464,0.94474 -0.31184,0.5196 -5.28757,7.9975 -11.05717,16.61755 l -10.49018,15.6728 h -15.28106 -15.28106 z m 59.9219,1.34085 c 0.12999,-0.37884 5.02216,-7.84849 10.87149,-16.5992 l 10.63515,-15.91039 15.12555,-0.0183 c 9.0895,-0.0111 15.03124,0.25131 14.88921,0.65738 -0.12998,0.37165 -5.02215,7.83793 -10.87148,16.59173 l -10.63516,15.91602 -15.12554,0.0258 c -9.29443,0.0159 -15.03444,-0.23973 -14.88922,-0.66299 z m 61.31884,-1.34085 c 0.72072,-1.1163 5.71418,-8.5942 11.0966,-16.61754 l 9.7862,-14.58789 h 3.50774 c 2.56239,0 3.8899,0.38944 4.92575,1.44501 1.32029,1.34541 1.41802,2.40834 1.41802,15.42181 0,12.62293 -0.12559,14.09264 -1.29659,15.17254 -1.11889,1.03185 -3.31485,1.19573 -16.02235,1.19573 H 236.98366 Z M 87.83814,169.70924 79.390306,161.07816 h 13.991869 c 7.695525,0 13.978845,0.24385 13.962925,0.54188 -0.016,0.29803 -2.51073,4.18202 -5.54404,8.63107 l -5.515092,8.0892 z m -23.887275,-27.2355 -13.276251,-13.54691 23.169318,-6.30252 c 12.743125,-3.46639 23.278385,-6.19138 23.411686,-6.05554 0.133301,0.13584 -2.677825,8.73821 -6.24694,19.11637 l -6.489315,18.86939 -2.575607,0.72903 c -1.416588,0.40097 -3.057344,0.73085 -3.646127,0.73306 -0.588784,0.002 -7.044825,-6.09208 -14.346764,-13.54288 z m 49.839995,3.6612 c 0.0196,-0.32481 2.97089,-9.01288 6.55834,-19.30682 l 6.52262,-18.71626 14.18021,-3.85019 c 7.79911,-2.1176 14.38043,-3.77419 14.62516,-3.6813 0.49681,0.18856 -11.92318,36.68484 -12.79305,37.59252 -0.30362,0.31682 -6.38345,2.17723 -13.51072,4.13423 -7.12728,1.95701 -13.55709,3.75174 -14.28849,3.98829 -0.73138,0.23655 -1.31372,0.16434 -1.29407,-0.16047 z m 58.81212,-16.31348 c 0,-0.71555 12.62675,-37.536652 12.9401,-37.734895 0.88266,-0.5584 28.41381,-7.598731 28.67478,-7.332783 0.28732,0.292783 -12.12223,37.120798 -12.70854,37.715338 -0.72185,0.73198 -28.90634,7.90072 -28.90634,7.35234 z m 58.47464,-16.35391 c 0.2009,-0.63705 3.16149,-9.28426 6.57909,-19.216044 l 6.21381,-18.057767 3.6667,-0.998916 c 4.14447,-1.129075 6.91424,-0.708392 7.6621,1.163748 1.21183,3.033609 6.73365,24.564199 6.73616,26.265579 0.001,1.0312 -0.55556,2.38693 -1.23799,3.01274 -0.68242,0.62581 -7.70825,2.90433 -15.61295,5.06338 -11.55337,3.15563 -14.30055,3.69838 -14.00692,2.76728 z"
       style="fill:none;stroke:#197ab9;stroke-width:11.3386;stroke-linecap:square;stroke-linejoin:round;stroke-miterlimit:4;stroke-dasharray:none;stroke-dashoffset:0;stroke-opacity:0.992157" />
  </g>
</svg>
